<!-- 📁 frontend/public/images/categories/Freinage.svg -->
<!-- 🛠️ Image pour la catégorie Freinage -->
<svg width="400" height="225" viewBox="0 0 400 225" xmlns="http://www.w3.org/2000/svg">
  <defs>
    <linearGradient id="brakingGradient" x1="0%" y1="0%" x2="100%" y2="100%">
      <stop offset="0%" style="stop-color:#ef4444;stop-opacity:1" />
      <stop offset="100%" style="stop-color:#dc2626;stop-opacity:1" />
    </linearGradient>
  </defs>
  
  <!-- Arrière-plan -->
  <rect width="400" height="225" fill="url(#brakingGradient)" />
  
  <!-- Système de freinage -->
  <g transform="translate(200, 112.5)">
    <!-- Disque de frein -->
    <circle cx="0" cy="0" r="45" fill="#ffffff" opacity="0.9"/>
    <circle cx="0" cy="0" r="35" fill="none" stroke="#dc2626" stroke-width="3"/>
    <circle cx="0" cy="0" r="20" fill="none" stroke="#dc2626" stroke-width="2"/>
    
    <!-- Trous du disque -->
    <g fill="#dc2626">
      <circle cx="25" cy="0" r="3"/>
      <circle cx="-25" cy="0" r="3"/>
      <circle cx="0" cy="25" r="3"/>
      <circle cx="0" cy="-25" r="3"/>
      <circle cx="18" cy="18" r="2"/>
      <circle cx="-18" cy="-18" r="2"/>
      <circle cx="18" cy="-18" r="2"/>
      <circle cx="-18" cy="18" r="2"/>
    </g>
    
    <!-- Étrier de frein -->
    <g transform="translate(30, 0)">
      <rect x="0" y="-20" width="15" height="40" rx="7" fill="#ffffff" opacity="0.9"/>
      <rect x="2" y="-15" width="11" height="30" rx="5" fill="none" stroke="#dc2626" stroke-width="2"/>
      <!-- Plaquettes -->
      <rect x="4" y="-12" width="7" height="8" fill="#dc2626"/>
      <rect x="4" y="4" width="7" height="8" fill="#dc2626"/>
    </g>
  </g>
  
  <!-- Texte -->
  <text x="200" y="200" text-anchor="middle" font-family="system-ui, sans-serif" font-size="18" font-weight="600" fill="#ffffff">
    Système de Freinage
  </text>
</svg>