<svg xmlns="http://www.w3.org/2000/svg" viewBox="0 0 240 160" fill="none" stroke="#6b7280" stroke-width="1.5" stroke-linecap="round" stroke-linejoin="round">
  <!-- Magnifying glass -->
  <circle cx="105" cy="75" r="35" fill="#f0fdf4" stroke="#6b7280" stroke-width="2"/>
  <circle cx="105" cy="75" r="28" fill="none" stroke="#d1d5db" stroke-dasharray="3,2"/>
  <line x1="130" y1="100" x2="155" y2="125" stroke="#6b7280" stroke-width="3"/>
  <!-- Handle -->
  <rect x="150" y="120" width="18" height="8" rx="3" fill="#e5e7eb" stroke="#6b7280" transform="rotate(-45 159 124)"/>
  <!-- Gear/piece inside magnifier -->
  <circle cx="105" cy="75" r="12" fill="none" stroke="#4b5563" stroke-width="1.5"/>
  <circle cx="105" cy="75" r="5" fill="#e5e7eb" stroke="#4b5563"/>
  <!-- Gear teeth -->
  <line x1="105" y1="62" x2="105" y2="58"/>
  <line x1="105" y1="88" x2="105" y2="92"/>
  <line x1="92" y1="75" x2="88" y2="75"/>
  <line x1="118" y1="75" x2="122" y2="75"/>
  <line x1="96" y1="66" x2="93" y2="63"/>
  <line x1="114" y1="84" x2="117" y2="87"/>
  <line x1="114" y1="66" x2="117" y2="63"/>
  <line x1="96" y1="84" x2="93" y2="87"/>
  <!-- Checkmark -->
  <path d="M185 55 L195 65 L215 45" stroke="#22c55e" stroke-width="2.5"/>
  <!-- Small wrench icon -->
  <path d="M180 95 L190 85 Q195 80 200 85 L205 90 Q210 95 205 100 L195 110 Z" fill="#f3f4f6" stroke="#9ca3af"/>
</svg>
