<svg xmlns="http://www.w3.org/2000/svg" viewBox="0 0 220 36" fill="none">
  <!--
    AUTOMECANIK - Logo Texte avec Compteur dans le O
    Sans icône engrenage
  -->

  <!-- AUTOMECANIK en paths -->
  <g transform="translate(4, 4)">
    <!-- AUT en noir -->
    <g fill="#0f172a">
      <!-- A -->
      <path d="M0 26l7-22h5l7 22h-4l-1.5-5H5.5l-1.5 5H0zm6-8h6l-3-10-3 10z"/>
      <!-- U -->
      <path d="M21 4h4v14c0 4 2 6 5 6s5-2 5-6V4h4v14c0 6-4 10-9 10s-9-4-9-10V4z"/>
      <!-- T -->
      <path d="M42 4h16v4h-6v18h-4V8h-6V4z"/>
    </g>

    <!-- O = Compteur (bleu) -->
    <g transform="translate(60, 3)">
      <!-- Cercle du O -->
      <circle cx="10" cy="12" r="11" fill="none" stroke="#2563eb" stroke-width="2.5"/>
      <!-- Graduations -->
      <g stroke="#1d4ed8" stroke-width="1" opacity="0.5">
        <line x1="10" y1="3" x2="10" y2="5"/>
        <line x1="17" y1="6" x2="15.5" y2="7.5"/>
        <line x1="19" y1="12" x2="17" y2="12"/>
      </g>
      <!-- Aiguille -->
      <path d="M10 12L16 6" stroke="#f59e0b" stroke-width="2" stroke-linecap="round"/>
      <!-- Centre -->
      <circle cx="10" cy="12" r="2.5" fill="#f59e0b"/>
      <circle cx="10" cy="12" r="1" fill="#ffffff"/>
    </g>

    <!-- MECANIK en bleu -->
    <g fill="#2563eb">
      <!-- M -->
      <path d="M84 4l6 17 6-17h7v22h-4V9l-7 19h-4L82 9v17h-4V4h6z"/>
      <!-- E -->
      <path d="M108 4h14v4h-10v5h9v4h-9v5h10v4h-14V4z"/>
      <!-- C -->
      <path d="M126 15c0-7 4-12 10-12 4 0 7 2 9 7l-4 1c-1-3-2-4-5-4-4 0-6 3-6 8s2 8 6 8c3 0 4-1 5-4l4 1c-2 5-5 7-9 7-6 0-10-5-10-12z"/>
      <!-- A -->
      <path d="M147 26l7-22h5l7 22h-4l-1.5-5h-8l-1.5 5h-4zm6-8h6l-3-10-3 10z"/>
      <!-- N -->
      <path d="M168 4h5l9 17V4h4v22h-5l-9-17v17h-4V4z"/>
      <!-- I -->
      <path d="M191 4h4v22h-4V4z"/>
      <!-- K -->
      <path d="M199 4h4v9l9-9h6l-10 11 11 11h-6l-8-9-2 2v7h-4V4z"/>
    </g>
  </g>

  <!-- Ligne accent -->
  <line x1="4" y1="32" x2="120" y2="32" stroke="#f59e0b" stroke-width="2" stroke-linecap="round" opacity="0.5"/>
</svg>
